This is all about the premiere  of Survivor and Big Brother tonight on CBS 9-19-2012.																																						Enjoy and please share.																																														TTLTTLTTLTTLTTLTTLTTLTTLTTLTTLTTLTTLTTLTTLTTLTTLTTLTTLTTL																																																				The Talk_Survivor And Big Brother Special_720p.HDTV.x264_2012-09-19_TTL.mkv
Format                           : Matroska
File size                        : 1.02 GiB
Duration                         : 36mn 32s
Overall bit rate                 : 4 010 Kbps
Writing application              : HandBrake 0.9.5
Writing library                  : libmkv 0.6.4.1

Video
ID                               : 1
Format                           : AVC
Format/Info                      : Advanced Video Codec
Format profile                   : High@L3.1
Format settings, CABAC           : Yes
Format settings, ReFrames        : 4 frames
Muxing mode                      : Container profile=Unknown@3.1
Codec ID                         : V_MPEG4/ISO/AVC
Duration                         : 36mn 30s
Bit rate                         : 3 706 Kbps
Nominal bit rate                 : 3 783 Kbps
Width                            : 1 280 pixels
Height                           : 720 pixels
Display aspect ratio             : 16:9
Frame rate mode                  : Variable
Frame rate                       : 29.970 fps
Resolution                       : 8 bits
Colorimetry                      : 4:2:0
Scan type                        : Progressive
Bits/(Pixel*Frame)               : 0.134
Stream size                      : 968 MiB (92%)
Writing library                  : x264 core 112


Audio                            : English
ID                               : 2
Format                           : AC-3
Format/Info                      : Audio Coding 3
Codec ID                         : A_AC3
Duration                         : 36mn 32s
Bit rate mode                    : Constant
Bit rate                         : 224 Kbps
Channel(s)                       : 2 channels
Channel positions                : L R
Sampling rate                    : 48.0 KHz
Stream size                      : 58.5 MiB (6%)

